<?xml version="1.0" encoding="UTF-8" standalone="no" ?>
<!DOCTYPE svg PUBLIC "-//W3C//DTD SVG 1.1//EN" "http://www.w3.org/Graphics/SVG/1.1/DTD/svg11.dtd">
<svg xmlns="http://www.w3.org/2000/svg" xmlns:xlink="http://www.w3.org/1999/xlink" version="1.1" width="1280" height="1024" viewBox="0 0 1280 1024" xml:space="preserve">
<desc>Created with Fabric.js 5.3.0</desc>
<defs>
</defs>
<g transform="matrix(1 0 0 1 640 512)" id="background-logo"  >
<rect style="stroke: none; stroke-width: 0; stroke-dasharray: none; stroke-linecap: butt; stroke-dashoffset: 0; stroke-linejoin: miter; stroke-miterlimit: 4; fill: rgb(255,255,255); fill-opacity: 0; fill-rule: nonzero; opacity: 1;"  paint-order="stroke"  x="-640" y="-512" rx="0" ry="0" width="1280" height="1024" />
</g>
<g transform="matrix(3.8242916592389555 0 0 3.8242916592389564 639.6588736113641 511.9090329630303)" id="logo-logo"  >
<g style=""  paint-order="stroke"   >
		<g transform="matrix(0.585320989384457 0 0 -0.5853209893844571 82.44638300542965 -3.1994815921732993)"  >
<path style="stroke: none; stroke-width: 1; stroke-dasharray: none; stroke-linecap: butt; stroke-dashoffset: 0; stroke-linejoin: miter; stroke-miterlimit: 4; fill: rgb(0,0,0); fill-rule: nonzero; opacity: 1;"  paint-order="stroke"  transform=" translate(27.346000000000004, 96.672)" d="M 0 0 L -5.194 12.588 C -7.231999999999999 17.503 -12.029 20.77 -17.349 20.77 L -38.176 20.77 C -43.496 20.77 -48.293000000000006 17.306 -50.331 12.392 L -54.451 2.1979999999999986 L -75.489 2.1979999999999986 C -63.571000000000005 -7.634000000000002 -53.345000000000006 -19.708 -45.319 -33.28 C -32.684000000000005 -54.561 -25.444000000000003 -79.22200000000001 -25.444000000000003 -105.763 C -25.444000000000003 -149.212 -44.862 -187.895 -75.487 -214.114 L -12.988999999999997 -214.114 C 5.671000000000003 -214.114 20.797000000000004 -198.595 20.797000000000004 -179.935 L 20.797000000000004 -31.194999999999993 C 20.797 -17.139 12.212 -5.09 0 0" stroke-linecap="round" />
</g>
		<g transform="matrix(0.585320989384457 0 0 -0.5853209893844571 -82.4463830054296 2.236101775745425)"  >
<path style="stroke: none; stroke-width: 1; stroke-dasharray: none; stroke-linecap: butt; stroke-dashoffset: 0; stroke-linejoin: miter; stroke-miterlimit: 4; fill: rgb(0,0,0); fill-rule: nonzero; opacity: 1;"  paint-order="stroke"  transform=" translate(-1.902000000000001, 0.39099999999999113)" d="M 0 0 C 0 26.541 7.241 51.005 19.875 72.287 C 27.901 85.858 38.128 97.933 50.045 107.76500000000001 L -12.454999999999998 107.76500000000001 C -31.115 107.76500000000001 -46.241 93.03200000000001 -46.241 74.37200000000001 L -46.241 -74.367 C -46.241 -93.027 -31.115000000000002 -108.547 -12.454999999999998 -108.547 L 50.043 -108.547 C 19.418 -82.327 0 -43.449 0 0" stroke-linecap="round" />
</g>
		<g transform="matrix(0.585320989384457 0 0 -0.5853209893844571 -0.00011706419780921351 -56.54036867576829)"  >
<path style="stroke: none; stroke-width: 1; stroke-dasharray: none; stroke-linecap: butt; stroke-dashoffset: 0; stroke-linejoin: miter; stroke-miterlimit: 4; fill: rgb(0,0,0); fill-rule: nonzero; opacity: 1;"  paint-order="stroke"  transform=" translate(-34.32099999999999, -20.8575)" d="M 0 0 C 10.51 4.604 22.113 7.176 34.321 7.176 C 46.53 7.176 58.132 4.604 68.643 0 L 94.326 25.684 C 76.668 35.879 56.177 41.715 34.321 41.715 C 12.465999999999998 41.715 -8.026000000000003 35.879000000000005 -25.684000000000005 25.684000000000005 z" stroke-linecap="round" />
</g>
		<g transform="matrix(0.585320989384457 0 0 -0.5853209893844571 0.00011706419792290035 60.00224966748263)"  >
<path style="stroke: none; stroke-width: 1; stroke-dasharray: none; stroke-linecap: butt; stroke-dashoffset: 0; stroke-linejoin: miter; stroke-miterlimit: 4; fill: rgb(0,0,0); fill-rule: nonzero; opacity: 1;"  paint-order="stroke"  transform=" translate(32.127, 20.3965)" d="M 0 0 C -9.923 -4.02 -20.762 -6.254 -32.127 -6.254 C -43.493 -6.254 -54.331 -4.02 -64.255 0 L -90.137 -25.882 C -72.937 -35.381 -53.165 -40.793 -32.127 -40.793 C -11.089000000000002 -40.793 8.683 -35.381 25.882999999999996 -25.883 z" stroke-linecap="round" />
</g>
		<g transform="matrix(0.585320989384457 0 0 -0.5853209893844571 -0.00005853209887618505 2.235574986854971)"  >
<path style="stroke: none; stroke-width: 1; stroke-dasharray: none; stroke-linecap: butt; stroke-dashoffset: 0; stroke-linejoin: miter; stroke-miterlimit: 4; fill: rgb(0,0,0); fill-rule: nonzero; opacity: 1;"  paint-order="stroke"  transform=" translate(52.432000000000016, -67.7)" d="M 0 0 C 21.125 16.225 33.514 41.128 33.514 68.093 C 34.045 90.869 23.915000000000003 108.863 23.915000000000003 108.863 L -23.035999999999998 61.911 L -52.432 32.525000000000006 L -81.82900000000001 61.912000000000006 L -128.77700000000002 108.86200000000001 L -132.43900000000002 99.552 C -136.37900000000002 89.52900000000001 -138.37800000000001 78.94500000000001 -138.37800000000001 68.093 C -138.37800000000001 41.131 -125.98700000000001 16.228 -104.86200000000002 0.0020000000000095497 L -129.77400000000003 -24.90999999999999 C -157.56500000000003 -1.83199999999999 -173.39200000000002 31.750000000000007 -173.39200000000002 68.09300000000002 C -173.39200000000002 89.82100000000003 -167.57000000000002 111.11100000000002 -156.55700000000002 129.66200000000003 C -155.73000000000002 131.06000000000003 -154.834 132.49600000000004 -153.81 134.06300000000005 C -153.417 134.66600000000005 -153.01500000000001 135.25000000000006 -152.613 135.83400000000003 L -151.893 136.88100000000003 C -151.606 137.30000000000004 -151.32 137.71800000000002 -151.025 138.13000000000002 C -150.285 139.17100000000002 -149.534 140.17800000000003 -148.773 141.18000000000004 L -148.214 141.91100000000003 C -142.994 148.67800000000003 -137.119 154.84800000000004 -130.701 160.30700000000002 L -52.432 82.038 L 25.84 160.31 C 34.718 152.776 42.437 144.028 48.833 134.243 C 49.844 132.706 50.801 131.172 51.687 129.672 C 62.707 111.111 68.528 89.821 68.528 68.093 C 68.528 31.75 52.702 -1.832 24.91 -24.91 Z" stroke-linecap="round" />
</g>
</g>
</g>
</svg>